<mxfile host="app.diagrams.net" modified="2024-06-17T05:26:00.393Z" agent="Mozilla/5.0 (Windows NT 10.0; Win64; x64) AppleWebKit/537.36 (KHTML, like Gecko) Chrome/126.0.0.0 Safari/537.36" etag="WERN3GOK7Fg9MqBhbFoZ" version="24.5.4" type="github">
  <diagram name="Page-1" id="JHUZTtqzL2DoqjdeEEIX">
    <mxGraphModel dx="1420" dy="776" grid="1" gridSize="10" guides="1" tooltips="1" connect="1" arrows="1" fold="1" page="1" pageScale="1" pageWidth="850" pageHeight="1100" math="0" shadow="0">
      <root>
        <mxCell id="0" />
        <mxCell id="1" parent="0" />
        <mxCell id="w0Oe7IraxlfsJ7JqCGhJ-5" value="" style="edgeStyle=orthogonalEdgeStyle;rounded=0;orthogonalLoop=1;jettySize=auto;html=1;" edge="1" parent="1" source="w0Oe7IraxlfsJ7JqCGhJ-2" target="w0Oe7IraxlfsJ7JqCGhJ-4">
          <mxGeometry relative="1" as="geometry" />
        </mxCell>
        <mxCell id="w0Oe7IraxlfsJ7JqCGhJ-2" value="&lt;font style=&quot;font-size: 32px;&quot;&gt;Start&lt;/font&gt;" style="ellipse;whiteSpace=wrap;html=1;" vertex="1" parent="1">
          <mxGeometry x="370" y="70" width="140" height="80" as="geometry" />
        </mxCell>
        <mxCell id="w0Oe7IraxlfsJ7JqCGhJ-3" style="edgeStyle=orthogonalEdgeStyle;rounded=0;orthogonalLoop=1;jettySize=auto;html=1;exitX=0.5;exitY=1;exitDx=0;exitDy=0;" edge="1" parent="1" source="w0Oe7IraxlfsJ7JqCGhJ-2" target="w0Oe7IraxlfsJ7JqCGhJ-2">
          <mxGeometry relative="1" as="geometry" />
        </mxCell>
        <mxCell id="w0Oe7IraxlfsJ7JqCGhJ-7" value="" style="edgeStyle=orthogonalEdgeStyle;rounded=0;orthogonalLoop=1;jettySize=auto;html=1;" edge="1" parent="1" source="w0Oe7IraxlfsJ7JqCGhJ-4" target="w0Oe7IraxlfsJ7JqCGhJ-6">
          <mxGeometry relative="1" as="geometry" />
        </mxCell>
        <mxCell id="w0Oe7IraxlfsJ7JqCGhJ-4" value="&lt;font style=&quot;font-size: 17px;&quot;&gt;Register / Login&lt;/font&gt;" style="rounded=1;whiteSpace=wrap;html=1;align=center;" vertex="1" parent="1">
          <mxGeometry x="380" y="240" width="120" height="60" as="geometry" />
        </mxCell>
        <mxCell id="w0Oe7IraxlfsJ7JqCGhJ-9" value="" style="edgeStyle=orthogonalEdgeStyle;rounded=0;orthogonalLoop=1;jettySize=auto;html=1;" edge="1" parent="1" source="w0Oe7IraxlfsJ7JqCGhJ-6" target="w0Oe7IraxlfsJ7JqCGhJ-8">
          <mxGeometry relative="1" as="geometry" />
        </mxCell>
        <mxCell id="w0Oe7IraxlfsJ7JqCGhJ-6" value="&lt;font style=&quot;font-size: 17px;&quot;&gt;Authentic User&lt;/font&gt;" style="whiteSpace=wrap;html=1;rounded=1;" vertex="1" parent="1">
          <mxGeometry x="380" y="380" width="120" height="60" as="geometry" />
        </mxCell>
        <mxCell id="w0Oe7IraxlfsJ7JqCGhJ-23" value="" style="edgeStyle=orthogonalEdgeStyle;rounded=0;orthogonalLoop=1;jettySize=auto;html=1;" edge="1" parent="1" source="w0Oe7IraxlfsJ7JqCGhJ-8" target="w0Oe7IraxlfsJ7JqCGhJ-22">
          <mxGeometry relative="1" as="geometry" />
        </mxCell>
        <mxCell id="w0Oe7IraxlfsJ7JqCGhJ-8" value="" style="rhombus;whiteSpace=wrap;html=1;rounded=1;" vertex="1" parent="1">
          <mxGeometry x="400" y="510" width="80" height="80" as="geometry" />
        </mxCell>
        <mxCell id="w0Oe7IraxlfsJ7JqCGhJ-19" value="" style="endArrow=none;html=1;rounded=0;" edge="1" parent="1">
          <mxGeometry width="50" height="50" relative="1" as="geometry">
            <mxPoint x="480" y="550" as="sourcePoint" />
            <mxPoint x="610" y="550" as="targetPoint" />
          </mxGeometry>
        </mxCell>
        <mxCell id="w0Oe7IraxlfsJ7JqCGhJ-20" value="" style="endArrow=none;html=1;rounded=0;" edge="1" parent="1">
          <mxGeometry width="50" height="50" relative="1" as="geometry">
            <mxPoint x="610" y="550" as="sourcePoint" />
            <mxPoint x="610" y="410" as="targetPoint" />
          </mxGeometry>
        </mxCell>
        <mxCell id="w0Oe7IraxlfsJ7JqCGhJ-21" value="" style="endArrow=classic;html=1;rounded=0;entryX=1;entryY=0.5;entryDx=0;entryDy=0;" edge="1" parent="1" target="w0Oe7IraxlfsJ7JqCGhJ-6">
          <mxGeometry width="50" height="50" relative="1" as="geometry">
            <mxPoint x="610" y="410" as="sourcePoint" />
            <mxPoint x="660" y="360" as="targetPoint" />
          </mxGeometry>
        </mxCell>
        <mxCell id="w0Oe7IraxlfsJ7JqCGhJ-22" value="&lt;font style=&quot;font-size: 18px;&quot;&gt;Home Page&lt;/font&gt;" style="rounded=1;whiteSpace=wrap;html=1;" vertex="1" parent="1">
          <mxGeometry x="380" y="680" width="120" height="60" as="geometry" />
        </mxCell>
        <mxCell id="w0Oe7IraxlfsJ7JqCGhJ-24" value="Invalid" style="text;html=1;align=center;verticalAlign=middle;whiteSpace=wrap;rounded=0;" vertex="1" parent="1">
          <mxGeometry x="510" y="520" width="60" height="30" as="geometry" />
        </mxCell>
        <mxCell id="w0Oe7IraxlfsJ7JqCGhJ-25" value="Valid" style="text;html=1;align=center;verticalAlign=middle;whiteSpace=wrap;rounded=0;" vertex="1" parent="1">
          <mxGeometry x="430" y="600" width="60" height="30" as="geometry" />
        </mxCell>
      </root>
    </mxGraphModel>
  </diagram>
</mxfile>
